TITLE ""
FILE "P1Q_t_0529-0538.mp3" MP3
  TRACK 01 AUDIO
    TITLE "P1Q_t_0529-0538_01"
    INDEX 01 00:00:00
  TRACK 02 AUDIO
    TITLE "P1Q_t_0529-0538_02"
    INDEX 01 00:01:14
  TRACK 03 AUDIO
    TITLE "P1Q_t_0529-0538_03"
    INDEX 01 00:01:35
  TRACK 04 AUDIO
    TITLE "P1Q_t_0529-0538_04"
    INDEX 01 00:03:54
  TRACK 05 AUDIO
    TITLE "P1Q_t_0529-0538_05"
    INDEX 01 00:04:00
  TRACK 06 AUDIO
    TITLE "P1Q_t_0529-0538_06"
    INDEX 01 00:09:66
  TRACK 07 AUDIO
    TITLE "P1Q_t_0529-0538_07"
    INDEX 01 00:10:40
  TRACK 08 AUDIO
    TITLE "P1Q_t_0529-0538_08"
    INDEX 01 00:11:39
  TRACK 09 AUDIO
    TITLE "P1Q_t_0529-0538_09"
    INDEX 01 00:11:65
  TRACK 10 AUDIO
    TITLE "P1Q_t_0529-0538_10"
    INDEX 01 00:14:16
  TRACK 11 AUDIO
    TITLE "P1Q_t_0529-0538_11"
    INDEX 01 00:14:36
  TRACK 12 AUDIO
    TITLE "P1Q_t_0529-0538_12"
    INDEX 01 00:19:25
  TRACK 13 AUDIO
    TITLE "P1Q_t_0529-0538_13"
    INDEX 01 00:19:70
  TRACK 14 AUDIO
    TITLE "P1Q_t_0529-0538_14"
    INDEX 01 00:21:34
  TRACK 15 AUDIO
    TITLE "P1Q_t_0529-0538_15"
    INDEX 01 00:21:58
  TRACK 16 AUDIO
    TITLE "P1Q_t_0529-0538_16"
    INDEX 01 00:24:73
  TRACK 17 AUDIO
    TITLE "P1Q_t_0529-0538_17"
    INDEX 01 00:25:18
  TRACK 18 AUDIO
    TITLE "P1Q_t_0529-0538_18"
    INDEX 01 00:31:11
  TRACK 19 AUDIO
    TITLE "P1Q_t_0529-0538_19"
    INDEX 01 00:31:56
  TRACK 20 AUDIO
    TITLE "P1Q_t_0529-0538_20"
    INDEX 01 00:33:02
  TRACK 21 AUDIO
    TITLE "P1Q_t_0529-0538_21"
    INDEX 01 00:33:23
  TRACK 22 AUDIO
    TITLE "P1Q_t_0529-0538_22"
    INDEX 01 00:37:62
  TRACK 23 AUDIO
    TITLE "P1Q_t_0529-0538_23"
    INDEX 01 00:38:07
  TRACK 24 AUDIO
    TITLE "P1Q_t_0529-0538_24"
    INDEX 01 00:43:41
  TRACK 25 AUDIO
    TITLE "P1Q_t_0529-0538_25"
    INDEX 01 00:44:12
  TRACK 26 AUDIO
    TITLE "P1Q_t_0529-0538_26"
    INDEX 01 00:45:15
  TRACK 27 AUDIO
    TITLE "P1Q_t_0529-0538_27"
    INDEX 01 00:45:36
  TRACK 28 AUDIO
    TITLE "P1Q_t_0529-0538_28"
    INDEX 01 00:46:55
  TRACK 29 AUDIO
    TITLE "P1Q_t_0529-0538_29"
    INDEX 01 00:47:00
  TRACK 30 AUDIO
    TITLE "P1Q_t_0529-0538_30"
    INDEX 01 00:52:11
  TRACK 31 AUDIO
    TITLE "P1Q_t_0529-0538_31"
    INDEX 01 00:52:60
  TRACK 32 AUDIO
    TITLE "P1Q_t_0529-0538_32"
    INDEX 01 00:53:52
  TRACK 33 AUDIO
    TITLE "P1Q_t_0529-0538_33"
    INDEX 01 00:54:02
  TRACK 34 AUDIO
    TITLE "P1Q_t_0529-0538_34"
    INDEX 01 00:56:21
  TRACK 35 AUDIO
    TITLE "P1Q_t_0529-0538_35"
    INDEX 01 00:56:38
  TRACK 36 AUDIO
    TITLE "P1Q_t_0529-0538_36"
    INDEX 01 01:02:21
  TRACK 37 AUDIO
    TITLE "P1Q_t_0529-0538_37"
    INDEX 01 01:02:70
  TRACK 38 AUDIO
    TITLE "P1Q_t_0529-0538_38"
    INDEX 01 01:04:06
  TRACK 39 AUDIO
    TITLE "P1Q_t_0529-0538_39"
    INDEX 01 01:04:28
  TRACK 40 AUDIO
    TITLE "P1Q_t_0529-0538_40"
    INDEX 01 01:07:09
  TRACK 41 AUDIO
    TITLE "P1Q_t_0529-0538_41"
    INDEX 01 01:07:30
  TRACK 42 AUDIO
    TITLE "P1Q_t_0529-0538_42"
    INDEX 01 01:12:14
  TRACK 43 AUDIO
    TITLE "P1Q_t_0529-0538_43"
    INDEX 01 01:12:65
  TRACK 44 AUDIO
    TITLE "P1Q_t_0529-0538_44"
    INDEX 01 01:13:66
  TRACK 45 AUDIO
    TITLE "P1Q_t_0529-0538_45"
    INDEX 01 01:14:15
  TRACK 46 AUDIO
    TITLE "P1Q_t_0529-0538_46"
    INDEX 01 01:15:55
  TRACK 47 AUDIO
    TITLE "P1Q_t_0529-0538_47"
    INDEX 01 01:16:00
  TRACK 48 AUDIO
    TITLE "P1Q_t_0529-0538_48"
    INDEX 01 01:20:25
  TRACK 49 AUDIO
    TITLE "P1Q_t_0529-0538_49"
    INDEX 01 01:20:72
  TRACK 50 AUDIO
    TITLE "P1Q_t_0529-0538_50"
    INDEX 01 01:22:04
  TRACK 51 AUDIO
    TITLE "P1Q_t_0529-0538_51"
    INDEX 01 01:22:30
  TRACK 52 AUDIO
    TITLE "P1Q_t_0529-0538_52"
    INDEX 01 01:24:68
  TRACK 53 AUDIO
    TITLE "P1Q_t_0529-0538_53"
    INDEX 01 01:25:38
  TRACK 54 AUDIO
    TITLE "P1Q_t_0529-0538_54"
    INDEX 01 01:29:38
  TRACK 55 AUDIO
    TITLE "P1Q_t_0529-0538_55"
    INDEX 01 01:30:10
  TRACK 56 AUDIO
    TITLE "P1Q_t_0529-0538_56"
    INDEX 01 01:31:23
  TRACK 57 AUDIO
    TITLE "P1Q_t_0529-0538_57"
    INDEX 01 01:31:44
  TRACK 58 AUDIO
    TITLE "P1Q_t_0529-0538_58"
    INDEX 01 01:35:62
  TRACK 59 AUDIO
    TITLE "P1Q_t_0529-0538_59"
    INDEX 01 01:36:08
  TRACK 60 AUDIO
    TITLE "P1Q_t_0529-0538_60"
    INDEX 01 01:41:06
